<svg xmlns="http://www.w3.org/2000/svg" viewBox="0 0 64 64"><switch><g><path fill="#10b981" d="M29.879 25.92a3 3 0 0 0 4.242 0l9.9-9.899a3 3 0 0 0 0-4.242l-9.9-9.9a3 3 0 0 0-4.242 0l-9.9 9.9a3 3 0 0 0 0 4.242l9.9 9.899zM62.122 29.879l-9.9-9.9a3 3 0 0 0-4.242 0l-9.899 9.9a3 3 0 0 0 0 4.242l9.899 9.9a3 3 0 0 0 4.242 0l9.9-9.9a3 3 0 0 0 0-4.242zM25.92 29.879l-9.899-9.9a3 3 0 0 0-4.242 0l-9.9 9.9a3 3 0 0 0 0 4.242l9.9 9.9a3 3 0 0 0 4.242 0l9.899-9.9a3 3 0 0 0 0-4.242zM34.121 38.08a3 3 0 0 0-4.242 0l-9.9 9.899a3 3 0 0 0 0 4.242l9.9 9.9a3 3 0 0 0 4.242 0l9.9-9.9a3 3 0 0 0 0-4.242l-9.9-9.899z"/></g></switch></svg>